<?xml version="1.0" standalone="no"?>
<!DOCTYPE svg PUBLIC "-//W3C//DTD SVG 20010904//EN"
 "http://www.w3.org/TR/2001/REC-SVG-20010904/DTD/svg10.dtd">
<svg version="1.0" xmlns="http://www.w3.org/2000/svg"
 width="2400.000000pt" height="1349.000000pt" viewBox="0 0 2400.000000 1349.000000"
 preserveAspectRatio="xMidYMid meet">

<g transform="translate(0.000000,1349.000000) scale(0.100000,-0.100000)"
fill="#000000" stroke="none">
<path d="M9218 8133 c-6090 -3 -6098 -3 -6098 -23 0 -11 -4 -20 -10 -20 -5 0
-10 -5 -10 -11 0 -6 -6 -17 -13 -24 -26 -30 -37 -44 -37 -50 0 -6 -11 -20 -38
-50 -6 -7 -12 -18 -12 -24 0 -6 -4 -11 -10 -11 -5 0 -10 -6 -10 -13 0 -7 -11
-24 -25 -39 -14 -15 -25 -30 -25 -33 0 -4 -6 -13 -12 -20 -30 -33 -38 -45 -38
-55 0 -5 -3 -10 -8 -10 -4 0 -16 -16 -26 -35 -11 -19 -23 -35 -28 -35 -4 0 -8
-6 -8 -13 0 -7 -11 -24 -25 -39 -14 -15 -25 -32 -25 -38 0 -5 -4 -10 -10 -10
-5 0 -10 -7 -10 -15 0 -9 -11 -26 -25 -39 -14 -13 -25 -29 -25 -36 0 -7 -11
-23 -25 -36 -14 -13 -25 -30 -25 -39 0 -8 -4 -15 -10 -15 -5 0 -10 -7 -10 -15
0 -8 -7 -15 -15 -15 -8 0 -15 -7 -15 -15 0 -8 -4 -15 -10 -15 -5 0 -10 -7 -10
-16 0 -9 -11 -27 -25 -40 -14 -13 -25 -30 -25 -39 0 -8 -4 -15 -10 -15 -5 0
-10 -7 -10 -15 0 -8 -7 -15 -15 -15 -8 0 -15 -9 -15 -20 0 -11 -4 -20 -10 -20
-5 0 -10 -5 -10 -11 0 -7 -11 -22 -25 -35 -14 -13 -25 -30 -25 -39 0 -8 -4
-15 -10 -15 -5 0 -10 -5 -10 -11 0 -6 -6 -17 -12 -24 -28 -31 -38 -44 -38 -50
0 -4 -6 -13 -12 -20 -30 -33 -38 -45 -38 -55 0 -5 -4 -10 -10 -10 -5 0 -10 -5
-10 -11 0 -6 -6 -17 -12 -24 -28 -31 -38 -44 -38 -50 0 -4 -6 -13 -12 -20 -30
-33 -38 -45 -38 -55 0 -5 -4 -10 -10 -10 -5 0 -10 -6 -10 -13 0 -7 -11 -24
-25 -39 -14 -15 -25 -30 -25 -33 0 -4 -6 -13 -12 -20 -30 -33 -38 -45 -38 -55
0 -5 -4 -10 -10 -10 -5 0 -10 -7 -10 -15 0 -9 -11 -26 -25 -39 -14 -13 -25
-29 -25 -35 0 -7 -11 -22 -25 -35 -14 -13 -25 -28 -25 -35 0 -6 -4 -11 -10
-11 -5 0 -10 -7 -10 -15 0 -9 -11 -26 -25 -39 -14 -13 -25 -31 -25 -40 0 -9
-4 -16 -10 -16 -5 0 -10 -7 -10 -15 0 -8 -7 -15 -15 -15 -8 0 -15 -9 -15 -20
0 -11 -4 -20 -10 -20 -5 0 -10 -6 -10 -14 0 -8 -7 -16 -15 -20 -8 -3 -15 -12
-15 -21 0 -8 -4 -15 -10 -15 -5 0 -10 -7 -10 -15 0 -8 -4 -15 -10 -15 -5 0
-10 -7 -10 -15 0 -8 -7 -15 -15 -15 -8 0 -15 -9 -15 -20 0 -11 -4 -20 -10 -20
-5 0 -10 -7 -10 -15 0 -8 -7 -15 -16 -15 -9 0 -14 -6 -12 -12 6 -17 19431 -35
19436 -18 2 6 10 17 18 24 8 8 14 18 14 23 0 5 9 15 20 23 11 8 20 20 20 27 0
7 11 23 25 37 14 14 25 31 25 39 0 8 11 23 25 33 14 10 25 27 25 38 0 10 16
33 35 52 19 18 35 38 35 44 0 6 11 21 25 34 14 13 25 31 25 40 0 10 16 32 35
50 19 19 35 39 35 45 0 7 11 22 25 35 14 13 25 31 25 40 0 9 5 16 10 16 6 0
10 7 10 15 0 8 7 15 15 15 8 0 15 7 15 15 0 8 5 15 10 15 6 0 10 7 10 16 0 9
11 27 25 40 14 13 25 30 25 39 0 8 5 15 10 15 6 0 10 7 10 15 0 8 7 15 15 15
8 0 15 9 15 20 0 11 5 20 10 20 6 0 10 5 10 11 0 7 11 22 25 35 14 13 25 30
25 39 0 8 5 15 10 15 6 0 10 7 10 15 0 8 7 15 15 15 8 0 15 9 15 20 0 11 5 20
10 20 6 0 10 5 10 11 0 7 11 22 25 35 14 13 25 30 25 39 0 8 4 15 8 15 5 0 17
16 28 35 10 19 22 35 26 35 5 0 8 5 8 11 0 6 6 17 13 24 26 30 37 44 37 50 0
3 11 18 25 33 14 15 25 32 25 39 0 7 5 13 10 13 6 0 10 5 10 11 0 6 6 17 13
24 26 30 37 44 37 50 0 3 11 18 25 33 14 15 25 32 25 39 0 7 4 13 8 13 5 0 17
16 28 35 10 19 22 35 26 35 5 0 8 5 8 11 0 6 6 17 13 24 27 31 37 44 37 51 0
4 8 14 19 23 10 9 21 26 25 39 4 12 12 22 17 22 5 0 9 5 9 11 0 6 6 17 13 24
26 30 37 44 37 50 0 3 11 17 25 31 14 14 25 30 25 37 0 7 9 19 20 27 11 8 20
20 20 27 0 7 11 23 24 36 13 13 27 33 30 45 4 12 12 22 17 22 5 0 9 6 9 13 0
7 9 19 20 27 11 8 20 25 20 37 l0 23 -3632 -2 c-1998 -2 -6377 -4 -9730 -5z
m2182 -583 c0 -5 18 -10 39 -10 22 0 54 -8 72 -17 34 -19 79 -57 79 -68 0 -4
7 -13 15 -21 19 -19 19 -73 0 -98 -8 -11 -15 -28 -15 -38 0 -10 -4 -18 -10
-18 -5 0 -10 -7 -10 -15 0 -8 -4 -15 -9 -15 -5 0 -12 -11 -15 -25 -4 -14 -11
-25 -16 -25 -6 0 -10 -5 -10 -10 0 -6 -11 -22 -25 -35 l-24 -25 -251 0 -250 0
0 25 c0 25 0 25 -98 25 -82 0 -103 -3 -120 -19 -12 -10 -22 -24 -22 -30 0 -7
-11 -22 -25 -35 -14 -13 -25 -26 -25 -30 0 -7 -10 -20 -37 -51 -7 -7 -13 -16
-13 -20 0 -3 -10 -17 -22 -30 -35 -37 -48 -54 -48 -61 0 -4 -16 -21 -35 -40
-19 -18 -35 -39 -35 -46 0 -8 -6 -20 -12 -26 -23 -23 12 -33 103 -29 86 4 87
5 128 46 22 22 41 44 41 49 0 4 11 19 25 34 14 15 25 30 25 33 0 4 6 13 14 21
12 11 61 14 265 14 220 0 251 -2 251 -15 0 -9 -11 -26 -25 -39 -14 -13 -25
-26 -25 -30 0 -7 -10 -20 -37 -51 -7 -7 -13 -17 -13 -22 0 -5 -9 -15 -20 -23
-11 -8 -20 -20 -20 -28 0 -7 -7 -15 -15 -18 -8 -4 -15 -12 -15 -20 0 -8 -4
-14 -10 -14 -5 0 -10 -7 -10 -15 0 -8 -7 -15 -15 -15 -8 0 -15 -9 -15 -20 0
-11 -4 -20 -10 -20 -5 0 -10 -5 -10 -11 0 -7 -11 -22 -25 -35 -14 -13 -25 -28
-25 -35 0 -6 -15 -26 -33 -43 -18 -17 -36 -39 -40 -49 -4 -11 -16 -21 -27 -24
-11 -3 -20 -9 -20 -14 0 -5 -163 -9 -370 -9 -240 0 -370 4 -370 10 0 6 -22 10
-50 10 -27 0 -50 4 -50 9 0 5 -11 12 -25 15 -14 4 -25 11 -25 16 0 6 -6 10
-13 10 -14 0 -57 44 -57 59 0 5 -6 11 -12 14 -17 5 -17 159 0 165 7 2 12 15
12 28 0 13 5 24 10 24 6 0 10 6 10 13 0 7 11 24 25 39 14 15 25 31 25 35 0 5
11 20 25 35 14 15 25 32 25 38 0 5 3 10 8 10 4 0 16 16 26 35 11 19 23 35 28
35 4 0 8 5 8 10 0 10 8 22 38 55 6 7 12 16 12 20 0 6 10 19 38 50 6 7 12 18
12 24 0 6 4 11 8 11 5 0 17 16 28 35 10 19 22 35 26 35 5 0 8 7 8 15 0 8 5 15
10 15 6 0 10 9 10 20 0 11 7 20 15 20 8 0 15 7 15 15 0 8 5 15 10 15 6 0 10 7
10 16 0 9 11 27 25 40 14 13 25 30 25 39 0 8 5 15 10 15 6 0 10 7 10 15 0 8 7
15 15 15 8 0 15 9 15 20 0 11 5 20 10 20 6 0 10 7 10 15 0 13 56 15 445 15
290 0 445 -3 445 -10z m1480 0 c0 -5 18 -10 40 -10 22 0 40 -4 40 -9 0 -5 10
-13 22 -17 29 -9 48 -29 48 -49 0 -9 7 -24 16 -32 10 -10 14 -26 11 -42 -9
-43 -31 -101 -39 -101 -5 0 -8 -7 -8 -16 0 -9 -11 -27 -25 -40 -14 -13 -25
-28 -25 -35 0 -6 -16 -26 -35 -45 -19 -18 -35 -40 -35 -49 0 -19 -23 -45 -39
-45 -6 0 -11 -10 -11 -21 0 -12 -16 -36 -35 -55 -19 -18 -35 -40 -35 -49 0
-19 -23 -45 -39 -45 -6 0 -11 -9 -11 -21 0 -11 -16 -35 -35 -53 -19 -19 -35
-39 -35 -45 0 -6 -16 -27 -35 -45 -19 -19 -35 -39 -35 -45 0 -6 -5 -11 -11
-11 -11 0 -39 -25 -39 -35 0 -9 -27 -35 -37 -35 -4 0 -17 -11 -27 -25 -10 -14
-27 -25 -37 -25 -11 0 -19 -4 -19 -10 0 -5 -7 -10 -15 -10 -8 0 -15 -4 -15
-10 0 -5 -11 -12 -25 -16 -14 -3 -25 -10 -25 -15 0 -5 -13 -9 -30 -9 -16 0
-30 -3 -30 -8 0 -14 -94 -34 -182 -39 -49 -2 -88 -9 -88 -14 0 -5 -89 -9 -215
-9 -137 0 -215 4 -215 10 0 6 -22 10 -48 10 -27 0 -57 6 -68 15 -10 8 -25 15
-32 15 -17 0 -72 57 -72 75 0 8 -4 15 -10 15 -5 0 -10 11 -10 24 0 14 -5 28
-11 32 -11 6 -9 32 7 139 4 22 9 42 13 45 3 3 14 22 23 43 10 20 22 37 28 37
5 0 10 7 10 16 0 9 11 27 25 40 14 13 25 28 25 34 0 5 5 10 10 10 6 0 10 7 10
16 0 9 11 27 25 40 14 13 25 28 25 35 0 6 11 22 25 35 14 13 25 30 25 39 0 8
5 15 10 15 6 0 10 5 10 11 0 14 25 39 39 39 6 0 11 7 11 15 0 9 11 26 25 39
14 13 25 27 25 32 0 5 9 16 20 24 11 8 20 20 20 28 0 7 7 15 15 18 8 4 15 12
15 20 0 8 5 14 10 14 6 0 10 7 10 15 0 8 7 15 15 15 8 0 15 7 15 15 0 8 5 15
10 15 6 0 10 7 10 16 0 18 23 44 39 44 6 0 11 5 11 10 0 39 8 39 513 40 318 0
487 -3 487 -10z m5990 0 c0 -6 33 -10 78 -10 42 0 95 -7 117 -15 22 -8 61 -14
88 -15 26 0 47 -4 47 -10 0 -5 20 -10 45 -10 25 0 45 -4 45 -9 0 -5 18 -11 40
-15 22 -3 40 -11 40 -16 0 -6 16 -10 35 -10 19 0 35 -4 35 -10 0 -5 11 -10 25
-10 14 0 25 -4 25 -10 0 -5 11 -12 25 -16 14 -3 25 -10 25 -15 0 -5 10 -9 23
-9 13 0 29 -6 36 -12 8 -9 44 -13 103 -13 64 0 93 4 96 13 2 6 15 12 28 12 13
0 24 3 24 8 0 4 16 16 35 26 19 11 35 23 35 28 0 4 7 8 15 8 8 0 15 5 15 10 0
19 39 -14 57 -47 17 -32 19 -33 85 -33 39 0 68 -4 68 -10 0 -5 9 -10 20 -10
11 0 23 -7 26 -15 4 -8 15 -15 26 -15 21 0 48 -22 48 -39 0 -6 3 -11 8 -11 11
0 42 -59 42 -81 0 -10 5 -19 10 -19 6 0 10 -12 10 -27 0 -16 7 -37 15 -47 8
-11 15 -28 15 -38 0 -10 5 -18 10 -18 6 0 10 -22 10 -50 0 -27 -4 -50 -10 -50
-5 0 -10 -7 -10 -15 0 -8 -5 -15 -11 -15 -11 0 -39 -25 -39 -35 0 -10 -28 -35
-39 -35 -6 0 -11 -4 -11 -8 0 -14 -58 -42 -87 -42 -25 0 -69 22 -83 41 -3 4
-37 9 -75 12 -121 9 -239 27 -260 38 -14 9 -20 9 -23 0 -2 -6 -12 -11 -22 -11
-36 0 -50 -12 -50 -42 0 -27 19 -58 35 -58 10 0 35 -28 35 -39 0 -6 10 -11 23
-11 12 0 31 -11 41 -25 10 -14 27 -25 37 -25 11 0 19 -4 19 -10 0 -5 5 -10 10
-10 10 0 22 -8 55 -37 7 -7 18 -13 24 -13 6 0 11 -4 11 -10 0 -5 6 -10 13 -10
7 0 24 -11 39 -25 15 -14 34 -25 43 -25 15 0 25 -6 60 -37 7 -7 18 -13 24 -13
6 0 11 -4 11 -10 0 -5 8 -10 18 -10 9 0 26 -7 36 -15 11 -8 30 -15 43 -15 13
0 23 -4 23 -9 0 -5 24 -12 53 -15 220 -23 237 -29 237 -83 0 -18 -5 -33 -11
-33 -6 0 -18 -7 -27 -16 -12 -13 -29 -15 -80 -11 -35 3 -69 10 -75 16 -6 6
-30 11 -54 11 -24 0 -43 5 -43 10 0 6 -10 10 -23 10 -13 0 -32 7 -43 15 -10 8
-27 15 -36 15 -10 0 -18 5 -18 10 0 6 -15 10 -34 10 -19 0 -38 5 -41 10 -3 6
-14 10 -23 10 -9 0 -30 7 -46 15 -15 8 -39 15 -52 15 -13 0 -24 5 -24 10 0 6
-14 10 -31 10 -17 0 -37 7 -45 15 -9 8 -26 15 -40 15 -13 0 -24 5 -24 10 0 6
-18 10 -39 10 -22 0 -42 4 -45 9 -3 4 -24 11 -46 15 -22 3 -40 11 -40 16 0 6
-20 10 -45 10 -25 0 -45 5 -45 10 0 6 -15 10 -32 10 -18 0 -42 7 -52 15 -11 8
-35 15 -53 15 -18 0 -33 5 -33 10 0 6 -27 10 -60 10 -33 0 -60 4 -60 9 0 4
-27 11 -60 15 -33 4 -62 11 -65 16 -4 6 -31 10 -61 10 -30 0 -54 5 -54 10 0 6
-15 10 -32 10 -18 0 -42 7 -52 15 -11 8 -35 15 -53 15 -18 0 -33 5 -33 10 0 6
-16 10 -35 10 -19 0 -35 5 -35 10 0 6 -10 10 -22 10 -13 0 -36 7 -52 15 -15 8
-39 15 -52 15 -13 0 -24 5 -24 10 0 6 -12 10 -27 10 -16 0 -37 7 -47 15 -11 8
-30 15 -43 15 -13 0 -23 5 -23 10 0 6 -16 10 -35 10 -19 0 -35 4 -35 9 0 5
-22 12 -50 16 -27 4 -50 11 -50 16 0 5 -27 9 -60 9 -33 0 -60 4 -60 10 0 6
-33 10 -80 10 -47 0 -80 -4 -80 -10 0 -5 -22 -10 -50 -10 -27 0 -50 -4 -50
-10 0 -5 -16 -12 -35 -16 -19 -3 -35 -10 -35 -15 0 -5 -13 -9 -30 -9 -16 0
-30 -4 -30 -10 0 -5 -9 -10 -19 -10 -11 0 -26 -7 -35 -15 -8 -8 -24 -15 -35
-15 -12 0 -21 -4 -21 -10 0 -5 -11 -10 -25 -10 -14 0 -25 -4 -25 -10 0 -5 -11
-12 -25 -16 -14 -3 -25 -10 -25 -15 0 -5 -11 -9 -25 -9 -14 0 -25 -4 -25 -10
0 -5 -9 -10 -20 -10 -11 0 -23 -7 -26 -15 -4 -8 -15 -15 -25 -15 -10 0 -19 -4
-19 -10 0 -5 -11 -10 -24 -10 -13 0 -26 -5 -28 -10 -2 -6 -29 -14 -61 -17 -31
-3 -57 -10 -57 -14 0 -5 -58 -9 -130 -9 -80 0 -130 4 -130 10 0 6 -46 10 -119
10 -69 0 -122 -4 -126 -10 -3 -5 -22 -10 -41 -10 -19 0 -34 -4 -34 -10 0 -5
-11 -10 -24 -10 -14 0 -31 -7 -40 -15 -8 -8 -24 -15 -35 -15 -12 0 -21 -4 -21
-10 0 -5 -7 -10 -15 -10 -9 0 -26 -11 -39 -25 -13 -14 -31 -25 -40 -25 -16 0
-26 -6 -61 -37 -7 -7 -18 -13 -24 -13 -6 0 -11 -4 -11 -10 0 -5 -7 -10 -15
-10 -9 0 -26 -11 -39 -25 -13 -14 -33 -25 -44 -25 -11 0 -22 -3 -24 -7 -5 -12
-76 -43 -98 -43 -11 0 -20 -4 -20 -10 0 -6 -48 -10 -125 -10 -109 0 -129 3
-146 18 -19 18 -18 52 2 52 5 0 9 9 9 20 0 11 5 20 10 20 6 0 10 5 10 12 0 19
31 48 52 48 10 0 18 5 18 10 0 6 20 10 44 10 59 0 150 36 196 78 14 12 30 22
37 22 7 0 13 5 13 10 0 6 11 10 25 10 16 0 25 6 25 15 0 8 7 15 15 15 8 0 15
5 15 10 0 6 9 10 20 10 11 0 20 4 20 8 0 4 15 16 33 27 17 10 46 33 64 52 17
18 35 33 38 33 8 0 35 27 35 35 0 8 27 35 35 35 10 0 35 28 35 39 0 6 11 11
25 11 14 0 25 4 25 9 0 5 67 11 152 13 110 2 153 6 156 16 2 6 13 12 24 12 10
0 34 16 52 35 19 19 39 35 45 35 6 0 27 16 45 35 19 19 37 35 41 35 10 0 35
28 35 39 0 6 5 11 11 11 23 0 39 30 39 74 0 34 -4 46 -15 46 -8 0 -15 5 -15
10 0 6 -9 10 -19 10 -11 0 -21 5 -23 12 -2 6 -30 13 -61 16 -31 2 -57 8 -57
13 0 5 -65 9 -145 9 -80 0 -145 4 -145 8 0 5 -100 12 -222 16 -123 4 -227 11
-232 16 -13 13 -278 13 -308 0 -24 -10 -245 -28 -455 -36 -68 -3 -123 -9 -123
-15 0 -5 -38 -9 -85 -9 -50 0 -85 4 -85 10 0 6 -9 10 -20 10 -29 0 -62 33 -54
53 3 10 10 17 15 17 5 0 9 7 9 15 0 10 11 15 35 15 19 0 35 5 35 10 0 6 35 10
84 10 51 0 86 4 88 11 2 7 68 13 181 16 97 3 177 10 177 15 0 4 209 8 465 8
256 0 465 -4 465 -9 0 -4 63 -10 141 -13 85 -3 145 -10 152 -17 6 -6 44 -11
89 -11 45 0 78 -4 78 -10 0 -6 52 -10 135 -10 83 0 135 4 135 10 0 6 30 10 69
10 39 0 71 5 73 10 2 6 36 13 76 17 39 3 72 10 72 14 0 5 36 9 80 9 47 0 80 4
80 10 0 6 28 10 63 10 34 1 91 7 127 15 36 8 111 14 168 15 61 0 102 4 102 10
0 6 83 10 230 10 147 0 230 -4 230 -10z m-14423 -27 c21 -10 40 -21 41 -25 2
-5 11 -8 20 -8 21 -1 52 -23 52 -39 0 -6 4 -11 10 -11 5 0 12 -16 16 -35 3
-19 10 -35 15 -35 12 0 12 -157 0 -164 -5 -3 -12 -22 -15 -41 -4 -19 -11 -35
-16 -35 -6 0 -10 -9 -10 -20 0 -11 -4 -20 -10 -20 -5 0 -10 -5 -10 -10 0 -6
-11 -21 -25 -34 -14 -13 -25 -30 -25 -37 -1 -19 -24 -49 -39 -49 -6 0 -11 -9
-11 -20 0 -11 -4 -20 -10 -20 -5 0 -10 -5 -10 -10 0 -6 -11 -21 -25 -34 -14
-13 -25 -28 -25 -35 0 -14 -37 -51 -51 -51 -7 0 -21 -10 -33 -23 -12 -13 -36
-30 -54 -38 -18 -7 -32 -17 -32 -21 0 -5 -10 -8 -22 -8 -13 -1 -34 -7 -48 -15
-14 -8 -52 -14 -87 -15 -35 0 -63 -4 -63 -10 0 -6 -90 -10 -250 -10 -171 0
-250 -3 -250 -11 0 -14 -25 -39 -39 -39 -6 0 -11 -9 -11 -20 0 -11 -4 -20 -10
-20 -5 0 -10 -5 -10 -11 0 -7 -15 -26 -32 -43 -18 -18 -38 -41 -44 -52 -6 -10
-21 -20 -33 -22 -11 -2 -21 -8 -21 -13 0 -5 -82 -9 -196 -9 -156 0 -198 3
-210 14 -19 19 -18 29 6 46 11 8 20 19 20 25 0 6 11 22 25 37 14 15 25 30 25
33 0 6 11 20 38 50 6 7 12 18 12 24 0 6 4 11 8 11 5 0 17 16 28 35 10 19 22
35 26 35 5 0 8 5 8 11 0 6 6 17 13 24 26 30 37 44 37 50 0 3 11 18 25 33 14
15 25 32 25 39 0 7 4 13 8 13 5 0 17 16 28 35 10 19 22 35 26 35 5 0 8 5 8 10
0 6 11 22 25 36 14 14 25 30 25 37 0 7 9 19 20 27 11 8 20 20 20 27 0 7 11 23
25 37 14 14 25 28 25 31 0 6 11 20 38 50 6 7 12 16 12 20 0 6 10 19 38 50 6 7
12 18 12 24 0 6 5 11 10 11 6 0 10 5 10 11 0 6 6 17 13 24 26 30 37 44 37 50
0 6 11 20 38 50 6 7 12 16 12 20 0 3 12 19 28 35 l27 29 377 1 c339 0 381 -2
415 -17z m1003 6 c0 -7 -11 -22 -25 -35 -14 -13 -25 -28 -25 -35 0 -6 -11 -22
-25 -35 -14 -13 -25 -30 -25 -39 0 -8 -4 -15 -8 -15 -5 0 -15 -11 -22 -25 -7
-14 -19 -25 -27 -25 -7 0 -13 -9 -13 -21 0 -11 -16 -35 -35 -53 -19 -19 -35
-39 -35 -46 0 -7 -11 -23 -25 -36 -14 -13 -25 -30 -25 -39 0 -8 -4 -15 -10
-15 -5 0 -10 -7 -10 -15 0 -8 -7 -15 -15 -15 -8 0 -15 -7 -15 -15 0 -8 -4 -15
-9 -15 -5 0 -12 -8 -16 -19 -3 -10 -19 -33 -35 -50 -17 -17 -30 -34 -30 -39 0
-4 -11 -19 -25 -34 -14 -15 -25 -34 -25 -42 0 -8 -4 -18 -10 -21 -5 -3 -10
-15 -10 -26 0 -10 5 -19 10 -19 6 0 10 -7 10 -15 0 -16 24 -20 95 -15 22 1 42
6 45 10 3 4 15 10 28 14 12 4 22 14 22 23 0 9 16 30 35 49 19 18 35 40 35 49
0 19 23 45 39 45 6 0 11 10 11 21 0 12 11 32 25 45 14 13 25 30 25 39 0 8 5
15 10 15 6 0 10 5 10 11 0 6 6 17 14 25 8 8 19 14 25 14 6 0 11 9 11 20 0 12
11 32 25 46 14 14 25 31 25 39 0 8 4 15 8 15 5 0 17 16 28 35 10 19 22 35 26
35 5 0 8 5 8 10 0 6 11 22 25 36 14 14 25 30 25 36 0 6 8 18 19 27 10 9 21 26
25 39 4 12 12 22 17 22 5 0 9 5 9 11 0 6 6 17 14 25 12 11 61 14 263 14 143 0
254 -4 263 -10 10 -6 11 -10 3 -10 -7 0 -13 -5 -13 -11 0 -7 -11 -22 -25 -35
-14 -13 -25 -30 -25 -39 0 -8 -4 -15 -10 -15 -5 0 -10 -7 -10 -15 0 -8 -7 -15
-15 -15 -8 0 -15 -7 -15 -15 0 -8 -4 -15 -10 -15 -5 0 -10 -7 -10 -16 0 -18
-23 -44 -39 -44 -6 0 -11 -9 -11 -21 0 -11 -16 -35 -35 -53 -19 -19 -35 -39
-35 -45 0 -7 -11 -22 -25 -35 -14 -13 -25 -26 -25 -30 0 -4 -6 -14 -12 -21
-30 -33 -38 -45 -38 -55 0 -5 -4 -10 -8 -10 -4 0 -16 -15 -27 -32 -10 -18 -26
-40 -35 -48 -10 -8 -20 -25 -24 -37 -4 -13 -12 -23 -17 -23 -5 0 -9 -5 -9 -10
0 -6 -10 -22 -22 -35 -38 -40 -48 -54 -48 -65 0 -5 -4 -10 -10 -10 -5 0 -10
-5 -10 -10 0 -10 -8 -22 -37 -55 -7 -7 -13 -16 -13 -20 0 -11 -149 -155 -160
-155 -5 0 -10 -7 -10 -15 0 -8 -7 -15 -15 -15 -8 0 -15 -4 -15 -10 0 -5 -9
-10 -20 -10 -11 0 -20 -4 -20 -10 0 -5 -11 -12 -25 -16 -14 -3 -25 -10 -25
-15 0 -5 -11 -9 -25 -9 -14 0 -25 -4 -25 -10 0 -5 -19 -10 -43 -10 -24 0 -49
-6 -56 -12 -17 -18 -443 -18 -449 0 -2 7 -23 12 -53 12 -27 0 -49 5 -49 10 0
6 -7 10 -15 10 -9 0 -26 11 -39 25 -13 14 -26 25 -30 25 -10 0 -36 27 -36 37
0 5 -9 15 -20 23 -12 8 -23 31 -27 52 -3 21 -9 38 -14 38 -5 0 -9 20 -9 45 0
25 4 45 9 45 5 0 11 18 15 40 3 22 11 40 16 40 6 0 10 9 10 20 0 11 5 20 10
20 6 0 10 7 10 15 0 8 11 25 25 39 14 14 25 28 25 31 0 6 11 20 38 50 6 7 12
18 12 24 0 6 4 11 8 11 5 0 17 16 28 35 10 19 22 35 26 35 5 0 8 5 8 10 0 10
8 22 38 55 6 7 12 16 12 20 0 3 11 17 25 31 14 14 25 30 25 37 0 7 9 19 20 27
11 8 20 20 20 27 0 7 7 13 15 13 8 0 15 9 15 20 0 11 5 20 10 20 6 0 10 7 10
15 0 8 7 15 15 15 8 0 15 9 15 20 0 11 5 20 10 20 6 0 10 5 10 11 0 7 11 22
25 35 14 13 25 30 25 39 0 8 5 15 10 15 6 0 10 7 10 15 0 13 35 15 255 15 184
0 255 -3 255 -11z m1307 -1 c4 -7 9 -63 11 -125 3 -90 7 -113 20 -118 8 -3 20
-1 26 5 5 5 18 10 28 10 10 0 18 5 18 10 0 6 5 10 10 10 10 0 22 8 55 38 7 6
18 12 24 12 6 0 11 4 11 9 0 5 11 12 25 15 14 4 25 11 25 16 0 6 9 10 20 10
11 0 20 5 20 10 0 6 7 10 15 10 8 0 15 4 15 10 0 5 11 12 25 16 14 3 25 10 25
15 0 5 9 9 20 9 11 0 20 5 20 10 0 6 7 10 15 10 8 0 15 7 15 15 0 13 38 15
284 15 157 0 287 -4 290 -9 3 -5 -6 -17 -19 -27 -14 -10 -25 -23 -25 -29 0 -6
-11 -22 -25 -37 -14 -15 -25 -32 -25 -38 0 -5 -4 -10 -10 -10 -5 0 -10 -6 -10
-13 0 -7 -11 -24 -25 -39 -14 -15 -25 -30 -25 -33 0 -6 -11 -20 -37 -50 -7 -7
-13 -16 -13 -20 0 -4 -6 -13 -12 -20 -29 -32 -38 -45 -38 -52 0 -5 -9 -15 -20
-23 -11 -8 -20 -20 -20 -27 0 -7 -11 -23 -24 -36 -13 -13 -27 -33 -30 -45 -4
-12 -12 -22 -17 -22 -5 0 -9 -5 -9 -10 0 -6 -10 -22 -22 -35 -38 -40 -48 -54
-48 -65 0 -5 -4 -10 -10 -10 -5 0 -10 -5 -10 -10 0 -10 -8 -22 -37 -55 -7 -7
-13 -16 -13 -20 0 -4 -6 -13 -12 -20 -27 -30 -38 -44 -38 -50 0 -3 -11 -18
-25 -33 -14 -15 -25 -32 -25 -39 0 -7 -4 -13 -10 -13 -5 0 -10 -5 -10 -11 0
-6 -6 -17 -14 -25 -8 -8 -19 -14 -25 -14 -6 0 -11 -10 -11 -23 0 -12 -11 -31
-25 -41 -14 -10 -25 -26 -25 -35 0 -9 -9 -23 -20 -31 -11 -8 -20 -20 -20 -27
0 -10 -53 -13 -245 -13 -211 0 -245 2 -245 15 0 8 7 15 15 15 8 0 15 9 15 20
0 11 5 20 10 20 6 0 10 5 10 11 0 7 11 22 25 35 14 13 25 28 25 35 0 6 16 26
35 45 19 18 35 39 35 46 1 18 25 48 39 48 6 0 11 7 11 15 0 8 5 15 10 15 6 0
10 7 10 15 0 9 11 26 25 39 14 13 25 27 25 32 0 5 12 22 26 37 14 16 23 31 19
35 -4 4 -10 1 -12 -5 -3 -7 -16 -13 -29 -13 -13 0 -24 -6 -24 -13 0 -7 -17
-19 -37 -26 -21 -8 -40 -17 -43 -20 -11 -14 -60 -41 -75 -41 -8 0 -15 -4 -15
-10 0 -5 -11 -10 -25 -10 -16 0 -25 -6 -25 -15 0 -9 -9 -15 -25 -15 -14 0 -25
-4 -25 -10 0 -5 -9 -10 -20 -10 -11 0 -20 -4 -20 -10 0 -5 -11 -10 -25 -10
-24 0 -25 3 -25 60 0 72 -19 150 -37 150 -7 0 -13 -9 -13 -20 0 -11 -4 -20
-10 -20 -5 0 -10 -7 -10 -15 0 -8 -7 -15 -15 -15 -8 0 -15 -5 -15 -10 0 -6
-10 -22 -22 -35 -38 -40 -48 -54 -48 -65 0 -5 -4 -10 -8 -10 -4 0 -16 -15 -27
-32 -10 -18 -27 -42 -37 -52 -10 -11 -18 -23 -18 -28 0 -4 -7 -8 -15 -8 -8 0
-15 -9 -15 -20 0 -11 -4 -20 -10 -20 -5 0 -10 -7 -10 -15 0 -8 -7 -15 -15 -15
-8 0 -15 -6 -15 -13 0 -7 -9 -19 -20 -27 -11 -8 -20 -19 -20 -26 0 -6 -8 -21
-19 -32 -18 -21 -26 -22 -225 -22 -187 0 -209 2 -227 18 -19 19 -19 19 6 38
14 10 25 23 25 29 0 6 11 22 25 37 14 15 25 32 25 38 0 5 5 10 10 10 6 0 10 6
10 13 0 7 11 24 25 39 14 15 25 30 25 33 0 6 11 20 38 50 6 7 12 16 12 20 0 6
10 19 38 50 6 7 12 18 12 24 0 6 4 11 8 11 5 0 17 16 28 35 10 19 22 35 26 35
5 0 8 5 8 10 0 10 8 22 38 55 6 7 12 16 12 20 0 3 10 17 23 30 37 40 47 54 47
65 0 5 5 10 10 10 6 0 10 5 10 10 0 10 8 22 38 55 6 7 12 16 12 20 0 6 10 19
38 50 6 7 12 18 12 24 0 6 4 11 8 11 5 0 17 16 28 35 10 19 22 35 26 35 5 0 8
5 8 11 0 6 6 17 13 24 26 30 37 44 37 50 0 3 11 17 25 31 14 14 25 30 25 37 0
7 9 19 20 27 11 8 20 20 20 27 0 19 415 19 427 1z m1940 -5 c21 -10 40 -21 41
-25 2 -5 11 -8 19 -8 21 0 92 -77 99 -107 4 -13 10 -23 15 -23 5 0 9 -20 9
-45 0 -25 5 -45 10 -45 6 0 10 -25 10 -55 0 -30 -4 -55 -10 -55 -5 0 -10 -18
-10 -40 0 -22 -4 -40 -10 -40 -5 0 -10 -9 -10 -20 0 -11 -7 -23 -15 -26 -8 -4
-15 -12 -15 -20 0 -8 -4 -14 -10 -14 -5 0 -10 -7 -10 -16 0 -18 -23 -44 -39
-44 -6 0 -11 -7 -11 -15 0 -8 -4 -15 -10 -15 -5 0 -10 -7 -10 -15 0 -9 -11
-26 -25 -39 -14 -13 -25 -26 -25 -30 0 -7 -10 -20 -37 -51 -7 -7 -13 -16 -13
-20 0 -3 -11 -17 -25 -31 -14 -14 -25 -30 -25 -35 0 -6 -16 -26 -35 -45 -19
-18 -35 -39 -35 -45 0 -6 -16 -26 -35 -45 -19 -18 -35 -39 -35 -47 0 -8 -11
-23 -25 -33 -14 -10 -25 -24 -25 -31 0 -10 -53 -13 -240 -13 -207 0 -240 2
-240 15 0 8 3 15 8 15 4 0 16 16 26 35 11 19 23 35 28 35 4 0 8 5 8 11 0 6 6
17 13 24 29 33 37 45 37 55 0 5 5 10 10 10 6 0 10 5 10 10 0 6 -52 10 -135 10
l-134 0 -31 -30 c-16 -16 -30 -36 -30 -45 0 -8 -4 -15 -10 -15 -5 0 -10 -7
-10 -15 0 -8 -7 -15 -15 -15 -8 0 -15 -5 -15 -10 0 -10 -8 -22 -37 -55 -7 -7
-13 -18 -13 -24 0 -8 -76 -11 -240 -11 -172 0 -240 3 -240 11 0 7 11 22 25 35
14 13 25 28 25 35 0 6 11 22 25 35 14 13 25 30 25 39 0 8 4 15 8 15 5 0 15 11
22 25 7 14 19 25 27 25 7 0 13 10 13 23 0 12 11 31 25 41 14 10 25 25 25 32 0
8 5 14 10 14 6 0 10 7 10 15 0 8 5 15 10 15 6 0 10 7 10 15 0 8 7 15 15 15 8
0 15 9 15 20 0 11 5 20 10 20 6 0 10 7 10 15 0 8 7 15 15 15 8 0 15 9 15 20 0
11 5 20 10 20 6 0 10 5 10 11 0 7 11 22 25 35 14 13 25 30 25 39 0 8 5 15 10
15 6 0 10 7 10 15 0 8 7 15 15 15 8 0 15 7 15 15 0 8 5 15 10 15 6 0 10 7 10
16 0 9 11 27 25 40 14 13 25 28 25 35 0 6 16 26 35 45 19 18 35 39 35 46 1 18
25 48 39 48 6 0 11 9 11 21 0 11 16 35 35 53 19 19 35 41 35 50 0 9 5 16 10
16 6 0 10 7 10 15 0 8 7 15 15 15 8 0 15 9 15 19 0 11 6 22 13 24 6 3 173 6
369 6 320 1 361 -1 395 -16z m933 -181 c5 -185 6 -192 23 -172 9 11 17 27 17
35 0 8 5 15 10 15 6 0 10 7 10 15 0 8 7 15 15 15 8 0 15 9 15 20 0 11 5 20 10
20 6 0 10 7 10 15 0 8 7 15 15 15 8 0 15 7 15 15 0 8 5 15 10 15 6 0 10 7 10
16 0 9 11 27 25 40 14 13 25 30 25 39 0 8 5 15 10 15 6 0 10 7 10 15 0 8 7 15
15 15 8 0 15 5 15 11 0 6 6 17 14 25 12 11 58 14 240 14 228 0 243 -3 214 -35
-30 -33 -38 -45 -38 -55 0 -5 -4 -10 -8 -10 -5 0 -17 -16 -28 -35 -10 -19 -22
-35 -26 -35 -5 0 -8 -5 -8 -11 0 -6 -6 -17 -12 -24 -27 -30 -38 -44 -38 -50 0
-3 -11 -18 -25 -33 -14 -15 -25 -32 -25 -39 0 -7 -4 -13 -8 -13 -5 0 -17 -16
-28 -35 -10 -19 -22 -35 -26 -35 -5 0 -8 -5 -8 -10 0 -6 -11 -22 -25 -36 -14
-14 -25 -30 -25 -37 0 -7 -9 -19 -20 -27 -11 -8 -20 -20 -20 -27 0 -7 -11 -23
-25 -37 -14 -14 -25 -30 -25 -36 0 -5 -4 -10 -9 -10 -5 0 -13 -10 -17 -22 -3
-12 -16 -32 -28 -44 -36 -39 -46 -53 -46 -64 0 -5 -4 -10 -10 -10 -5 0 -10 -5
-10 -10 0 -10 -8 -22 -37 -55 -7 -7 -13 -16 -13 -20 0 -6 -10 -19 -37 -50 -7
-7 -13 -18 -13 -24 0 -6 -4 -11 -8 -11 -5 0 -17 -16 -28 -35 -10 -19 -22 -35
-26 -35 -5 0 -8 -5 -8 -10 0 -10 -8 -22 -37 -55 -7 -7 -13 -18 -13 -24 0 -6
-7 -11 -15 -11 -8 0 -15 -4 -15 -10 0 -6 -53 -10 -140 -10 -87 0 -140 4 -140
10 0 6 -7 10 -15 10 -13 0 -15 24 -15 155 0 85 -3 155 -6 155 -8 0 -34 -27
-34 -37 0 -4 -11 -20 -25 -35 -14 -15 -25 -30 -25 -33 0 -6 -11 -20 -37 -50
-7 -7 -13 -16 -13 -20 0 -3 -10 -17 -22 -30 -34 -36 -48 -54 -48 -60 0 -4 -13
-20 -29 -36 l-29 -29 -196 0 c-124 0 -196 4 -196 10 0 6 -7 10 -15 10 -21 0
-19 23 5 40 11 8 20 20 20 27 0 7 11 23 25 37 14 14 25 28 25 31 0 6 11 20 38
50 6 7 12 16 12 20 0 6 10 19 38 50 6 7 12 18 12 24 0 6 5 11 10 11 6 0 10 5
10 11 0 6 6 17 13 24 27 31 37 44 37 50 0 4 6 13 13 20 26 30 37 44 37 50 0 3
11 18 25 33 14 15 25 32 25 39 0 7 5 13 10 13 6 0 10 5 10 11 0 6 6 17 13 24
26 30 37 44 37 50 0 3 11 17 25 31 14 14 25 31 25 39 0 8 4 15 8 15 5 0 15 11
22 25 7 14 19 25 27 25 7 0 13 9 13 20 0 12 10 32 23 45 34 37 47 54 47 61 0
4 11 17 25 30 14 13 25 30 25 39 0 8 5 15 10 15 6 0 10 5 10 10 0 10 8 22 38
55 6 7 12 16 12 20 0 3 12 19 28 35 l27 29 130 -2 130 -2 5 -193z m4230 188
c10 -6 11 -10 3 -10 -7 0 -13 -5 -13 -10 0 -10 -8 -22 -37 -55 -7 -7 -13 -18
-13 -24 0 -6 -4 -11 -10 -11 -5 0 -10 -5 -10 -10 0 -10 -8 -22 -37 -55 -7 -7
-13 -16 -13 -20 0 -4 -6 -13 -12 -20 -30 -33 -38 -45 -38 -55 0 -5 -4 -10 -10
-10 -5 0 -10 -5 -10 -10 0 -10 -8 -22 -37 -55 -7 -7 -13 -16 -13 -20 0 -6 -10
-19 -37 -50 -7 -7 -13 -18 -13 -24 0 -6 -4 -11 -8 -11 -5 0 -17 -16 -28 -35
-10 -19 -22 -35 -26 -35 -5 0 -8 -5 -8 -10 0 -10 -8 -22 -37 -55 -7 -7 -13
-18 -13 -24 0 -6 -3 -11 -8 -11 -4 0 -16 -16 -26 -35 -11 -19 -23 -35 -28 -35
-4 0 -8 -5 -8 -11 0 -6 -6 -17 -12 -24 -27 -30 -38 -44 -38 -50 0 -3 92 -5
205 -5 176 0 205 -2 205 -15 0 -8 -4 -15 -10 -15 -5 0 -10 -7 -10 -15 0 -8
-11 -25 -25 -39 -14 -14 -25 -30 -25 -35 0 -6 -11 -21 -25 -35 -14 -14 -25
-30 -25 -36 0 -5 -4 -10 -9 -10 -5 0 -13 -10 -17 -22 -4 -13 -15 -30 -25 -39
-11 -9 -19 -21 -19 -26 0 -6 -8 -20 -19 -31 -18 -22 -20 -22 -489 -22 -419 0
-471 2 -476 16 -11 30 -6 44 29 78 19 19 35 41 35 49 0 8 11 23 25 33 14 10
25 26 25 34 1 20 24 50 39 50 6 0 11 10 11 21 0 12 16 36 35 55 19 18 35 39
35 46 1 18 25 48 39 48 6 0 11 9 11 20 0 11 5 20 10 20 6 0 10 5 10 10 0 6 11
21 25 34 14 13 25 31 25 40 0 9 5 16 10 16 6 0 10 7 10 15 0 8 7 15 15 15 8 0
15 9 15 20 0 11 5 20 10 20 6 0 10 5 10 10 0 6 11 21 25 34 14 13 25 29 25 36
0 7 11 23 25 36 14 13 25 30 25 39 0 8 5 15 10 15 6 0 10 7 10 15 0 8 7 15 15
15 8 0 15 9 15 20 0 11 5 20 10 20 6 0 10 5 10 11 0 7 11 22 25 35 14 13 25
30 25 39 0 8 5 15 10 15 6 0 10 7 10 15 0 8 7 15 15 15 8 0 15 9 15 20 0 11 5
20 10 20 6 0 10 5 10 11 0 5 12 23 28 39 l27 29 260 0 c151 1 266 -3 275 -9z"/>
<path d="M12220 7210 c0 -5 -7 -10 -15 -10 -8 0 -15 -9 -15 -20 0 -11 -4 -20
-10 -20 -5 0 -10 -5 -10 -11 0 -7 -11 -22 -25 -35 -14 -13 -25 -28 -25 -35 0
-6 -16 -26 -35 -45 -19 -18 -35 -36 -35 -41 0 -4 -11 -20 -25 -35 -14 -15 -25
-30 -25 -33 0 -3 -11 -18 -25 -33 -14 -15 -25 -32 -25 -39 0 -7 -4 -13 -8 -13
-13 0 -44 -59 -36 -71 5 -8 31 -10 80 -6 65 5 76 9 104 37 16 17 30 33 30 36
0 6 15 24 48 59 12 13 22 27 22 30 0 4 6 13 13 20 29 33 37 45 37 55 0 5 4 10
8 10 5 0 17 16 28 35 10 19 22 35 26 35 5 0 8 5 8 11 0 14 25 39 39 39 6 0 11
10 11 23 0 12 9 29 20 37 11 8 20 18 20 22 0 4 -40 8 -90 8 -53 0 -90 -4 -90
-10z"/>
<path d="M3915 7180 c-3 -11 -11 -20 -16 -20 -5 0 -9 -5 -9 -11 0 -7 -11 -22
-25 -35 -14 -13 -25 -30 -25 -39 0 -8 -4 -15 -10 -15 -5 0 -10 -7 -10 -15 0
-8 -7 -15 -15 -15 -8 0 -15 -4 -15 -10 0 -5 11 -10 25 -10 14 0 25 5 25 10 0
6 38 10 94 10 71 0 98 4 110 15 8 8 19 15 25 15 6 0 11 7 11 15 0 8 4 15 9 15
12 0 24 66 16 90 -6 18 -16 20 -95 20 -80 0 -89 -2 -95 -20z"/>
<path d="M8160 7169 c0 -6 -16 -25 -35 -43 -19 -19 -35 -39 -35 -46 0 -7 -11
-23 -25 -36 -14 -13 -25 -26 -25 -29 0 -3 68 -5 150 -5 l151 0 29 30 c17 17
30 37 30 45 0 8 5 15 10 15 17 0 12 67 -6 74 -28 11 -244 7 -244 -5z"/>
</g>
</svg>
